<svg id="Logo" xmlns="http://www.w3.org/2000/svg" viewBox="0 0 280.18 90.38"><path d="M109.77,60.14V56.58a15.12,15.12,0,0,1-11.15,5c-6.82,0-10.23-3.61-10.23-10V29.74A.64.64,0,0,1,89,29.1h5.6a.65.65,0,0,1,.65.64V49c0,4.92,2.49,6.5,6.42,6.5a10.51,10.51,0,0,0,8.07-4.13V29.74a.65.65,0,0,1,.65-.64H116a.64.64,0,0,1,.64.64v30.4a.64.64,0,0,1-.64.64h-5.6A.65.65,0,0,1,109.77,60.14Zm22-3.75V72.21a.64.64,0,0,1-.64.64h-5.6a.65.65,0,0,1-.65-.64V29.74a.65.65,0,0,1,.65-.64h5.6a.64.64,0,0,1,.64.64v3.69A12.65,12.65,0,0,1,142,28.31c8.2,0,14,6.17,14,16.6s-5.84,16.66-14,16.66A12.74,12.74,0,0,1,131.81,56.39Zm17.12-11.48c0-6.17-3.54-10.5-9-10.5a10.32,10.32,0,0,0-8.13,4.2V51.14a10.34,10.34,0,0,0,8.13,4.33C145.39,55.47,148.93,51.07,148.93,44.91Zm35.41,15.87a.64.64,0,0,1-.64-.64V40.84c0-5-2.5-6.43-6.37-6.43a10.56,10.56,0,0,0-8.13,4.2V60.14a.65.65,0,0,1-.65.64H163a.65.65,0,0,1-.65-.64V17.67A.65.65,0,0,1,163,17h5.59a.65.65,0,0,1,.65.64V33.36a15,15,0,0,1,11.15-5.05c6.82,0,10.23,3.54,10.23,10V60.14a.64.64,0,0,1-.64.64Zm12.6-15.87c0-9.12,6.17-16.6,16.27-16.6s16.27,7.48,16.27,16.6-6.17,16.66-16.27,16.66S196.94,54,196.94,44.91Zm25.39,0c0-5.58-3.21-10.5-9.12-10.5s-9.12,4.92-9.12,10.5,3.28,10.56,9.12,10.56S222.33,50.55,222.33,44.91Zm13.51,15.23V17.67a.65.65,0,0,1,.65-.64h5.59a.65.65,0,0,1,.65.64V60.14a.65.65,0,0,1-.65.64h-5.59A.65.65,0,0,1,235.84,60.14Zm37.46,0V56.45a12.75,12.75,0,0,1-10.17,5.12c-8.07,0-14-6.17-14-16.66,0-10.24,5.9-16.6,14-16.6a12.37,12.37,0,0,1,10.17,5.18V17.67a.64.64,0,0,1,.64-.64h5.6a.64.64,0,0,1,.64.64V60.14a.64.64,0,0,1-.64.64h-5.6A.64.64,0,0,1,273.3,60.14Zm0-8.93V38.68a10.27,10.27,0,0,0-8.14-4.27c-5.51,0-9,4.4-9,10.5s3.48,10.56,9,10.56A10.29,10.29,0,0,0,273.3,51.21ZM40.52,83.63a29.43,29.43,0,0,1-8.33,1.25H31.8a29.1,29.1,0,0,1-8.38-1.27A2.5,2.5,0,1,0,22,88.41a34.61,34.61,0,0,0,9.8,1.47h.39a34.24,34.24,0,0,0,9.74-1.46,2.5,2.5,0,0,0-1.41-4.79ZM62.35,22.1h0V22a.17.17,0,0,1,0-.05,31.94,31.94,0,0,0-60.73.1.13.13,0,0,1,0,.06c-2.82,8.29-1.8,19.39,2.75,29.73,6.22,14.14,17.51,24,27.5,24h.29c10,0,21.28-9.83,27.5-24C64.17,41.52,65.19,30.4,62.35,22.1ZM47.67,10c-5.05-.21-10.56,2-15.7,6.26C26.82,12,21.31,9.81,16.26,10a27.08,27.08,0,0,1,31.41,0ZM36.09,69.93a9.71,9.71,0,0,1-8.25,0C19.31,66,17.58,50.2,24.07,35.46A44.88,44.88,0,0,1,32,23.18a44.75,44.75,0,0,1,7.9,12.28C46.35,50.2,44.62,66,36.09,69.93ZM8.89,49.86c-4.07-9.26-5-19-2.56-26.19,1.3-3.77,3.49-6.45,6.33-7.76,4.43-2.05,10.16-.6,15.67,3.85a49.93,49.93,0,0,0-8.84,13.68c-4.37,10-5.35,20.19-3.33,28.12A48,48,0,0,1,8.89,49.86Zm46.15,0a48.29,48.29,0,0,1-7.27,11.71c2-7.94,1-18.18-3.33-28.13a50.14,50.14,0,0,0-8.83-13.68c5.5-4.45,11.23-5.9,15.66-3.85,2.84,1.31,5,4,6.33,7.76C60.07,30.81,59.11,40.6,55,49.86Z" style="fill:#49cc68"/></svg>